<svg xmlns="http://www.w3.org/2000/svg" xmlns:xlink="http://www.w3.org/1999/xlink" width="1024" zoomAndPan="magnify" viewBox="0 0 768 767.999994" height="1024" preserveAspectRatio="xMidYMid meet" version="1.0"><defs><filter x="0%" y="0%" width="100%" height="100%" id="f72239606c"><feColorMatrix values="0 0 0 0 1 0 0 0 0 1 0 0 0 0 1 0 0 0 1 0" color-interpolation-filters="sRGB"/></filter><clipPath id="80d438ffb1"><path d="M 0 115.199219 L 768 115.199219 L 768 652.949219 L 0 652.949219 Z M 0 115.199219 " clip-rule="nonzero"/></clipPath><clipPath id="2e02219b12"><path d="M 171.34375 0 L 591.835938 0 L 591.835938 117 L 171.34375 117 Z M 171.34375 0 " clip-rule="nonzero"/></clipPath><clipPath id="beb0d36b1b"><path d="M 210.449219 19.726562 C 277.648438 19.949219 282.226562 20.101562 291.226562 21 C 303.976562 22.351562 320.398438 25.199219 337.273438 28.125 C 358.273438 31.726562 391.800781 39 407.476562 41.398438 C 415.351562 42.675781 419.398438 43.199219 425.324219 43.648438 C 431.101562 44.101562 438.226562 43.351562 442.425781 44.175781 C 445.050781 44.625 447 45.523438 448.5 46.425781 C 449.550781 47.023438 450.148438 47.550781 450.898438 48.601562 C 452.023438 49.949219 453.449219 52.273438 453.976562 54.300781 C 454.5 56.324219 454.5 58.726562 453.976562 60.75 C 453.449219 62.773438 452.398438 64.875 450.976562 66.449219 C 449.625 68.023438 447.300781 69.449219 445.726562 70.125 C 444.523438 70.648438 443.925781 70.949219 442.5 70.949219 C 439.5 70.949219 431.925781 69.898438 428.476562 67.199219 C 425.101562 64.5 425.101562 57.976562 421.949219 54.824219 C 418.648438 51.601562 413.476562 50.101562 408.898438 48.148438 C 404.101562 46.125 399.375 44.699219 393.523438 43.050781 C 385.875 41.023438 371.324219 38.773438 366.976562 37.273438 C 365.476562 36.75 365.023438 36.601562 364.050781 35.851562 C 362.625 34.800781 360.675781 32.925781 359.625 31.125 C 358.574219 29.324219 358.050781 26.625 357.898438 24.898438 C 357.824219 23.625 357.898438 22.875 358.199219 21.675781 C 358.648438 19.949219 360 17.25 361.050781 15.824219 C 361.800781 14.851562 362.398438 14.324219 363.449219 13.648438 C 364.875 12.675781 366.300781 11.773438 369.375 11.175781 C 378.976562 9.300781 420 9.824219 429.75 11.023438 C 432.976562 11.398438 434.175781 11.625 436.050781 12.601562 C 437.925781 13.574219 439.726562 15.148438 440.925781 16.875 C 442.050781 18.601562 442.949219 20.851562 443.175781 22.875 C 443.398438 24.976562 442.949219 27.601562 442.425781 29.324219 C 442.050781 30.523438 441.675781 31.199219 440.851562 32.175781 C 439.800781 33.601562 437.550781 35.550781 436.050781 36.449219 C 435 37.125 434.625 37.199219 432.976562 37.648438 C 427.050781 39.226562 402.601562 41.851562 390.300781 44.101562 C 380.773438 45.824219 370.800781 48.976562 365.175781 49.5 C 362.324219 49.800781 360.449219 49.800781 358.726562 49.5 C 357.449219 49.273438 356.773438 48.976562 355.648438 48.300781 C 354.148438 47.398438 352.050781 45.675781 350.851562 43.949219 C 349.726562 42.226562 348.898438 39.675781 348.601562 37.949219 C 348.375 36.675781 348.449219 35.925781 348.675781 34.648438 C 348.976562 32.925781 350.101562 30.148438 351 28.648438 C 351.675781 27.601562 352.199219 27 353.175781 26.25 C 354.523438 25.125 356.398438 23.925781 358.875 23.25 C 363 22.199219 370.648438 23.25 376.199219 22.800781 C 381.226562 22.351562 385.351562 21.675781 390.75 20.699219 C 397.648438 19.425781 408.75 16.125 414.148438 15.601562 C 417 15.375 418.949219 15.449219 420.675781 15.824219 C 421.875 16.125 422.625 16.425781 423.675781 17.101562 C 425.101562 18.074219 427.199219 19.800781 428.324219 21.523438 C 429.449219 23.25 430.199219 25.875 430.425781 27.601562 C 430.648438 28.875 430.574219 29.699219 430.351562 30.898438 C 429.976562 32.625 429.074219 35.175781 427.800781 36.824219 C 426.601562 38.550781 424.425781 40.125 422.851562 40.949219 C 421.800781 41.625 421.273438 41.773438 419.773438 42 C 416.101562 42.675781 406.726562 42 400.050781 42.523438 C 393 43.050781 388.199219 43.5 378.523438 45.226562 C 357.675781 48.898438 304.574219 56.023438 280.648438 67.351562 C 264.375 75.074219 254.625 90.375 243.976562 96.074219 C 237.074219 99.75 230.175781 103.726562 225.375 102.148438 C 220.875 100.648438 216.148438 93.300781 215.476562 88.5 C 214.875 83.851562 217.5 75.601562 220.949219 73.726562 C 224.25 71.925781 235.050781 74.625 235.5 77.023438 C 236.175781 80.773438 210.976562 92.324219 204.824219 97.726562 C 201.824219 100.425781 200.175781 102.300781 198.75 104.625 C 197.625 106.648438 197.550781 109.199219 196.648438 110.773438 C 196.050781 111.824219 195.523438 112.425781 194.550781 113.25 C 193.199219 114.375 190.949219 115.875 188.925781 116.398438 C 186.898438 117 184.5 117.074219 182.476562 116.625 C 180.449219 116.175781 178.125 114.824219 176.699219 113.773438 C 175.648438 113.023438 175.125 112.425781 174.449219 111.375 C 173.476562 109.949219 172.351562 107.175781 171.976562 105.449219 C 171.75 104.175781 171.523438 103.5 171.898438 102.148438 C 172.726562 99.148438 176.550781 93.601562 180.75 89.023438 C 187.050781 82.050781 200.023438 72.824219 208.199219 66.601562 C 214.5 61.648438 219.523438 57.976562 225.449219 54.074219 C 231.375 50.101562 237.375 46.273438 243.675781 42.898438 C 250.050781 39.375 256.648438 36.375 263.476562 33.375 C 270.601562 30.300781 277.800781 27.449219 285.449219 24.824219 C 293.398438 22.050781 301.949219 19.5 310.351562 17.25 C 318.601562 15 325.425781 13.273438 335.25 11.324219 C 348.976562 8.550781 371.625 5.023438 385.125 3.226562 C 394.351562 2.023438 399.675781 1.5 408.375 0.75 C 419.550781 -0.148438 431.851562 -0.976562 446.773438 -1.5 C 467.625 -2.25 501.898438 -2.550781 522 -2.398438 C 535.425781 -2.324219 546.675781 -3.449219 555.523438 -1.574219 C 561.75 -0.300781 567.226562 1.125 570.824219 4.574219 C 574.273438 7.875 575.550781 13.574219 577.199219 18.300781 C 578.851562 22.875 579.148438 26.925781 580.726562 32.476562 C 583.050781 40.648438 588.898438 56.023438 590.398438 62.398438 C 591.074219 65.324219 592.125 66.300781 591.449219 68.925781 C 590.023438 74.25 578.699219 90.300781 574.800781 90.226562 C 572.625 90.226562 571.273438 86.25 569.699219 83.476562 C 567.75 79.949219 566.550781 75.75 564.675781 70.5 C 561.824219 62.550781 557.023438 48.675781 554.925781 40.273438 C 553.425781 34.425781 556.050781 28.5 552.074219 25.199219 C 544.648438 18.976562 515.699219 24.601562 498 24.675781 C 480.976562 24.675781 463.351562 24.898438 447.976562 25.5 C 434.773438 25.949219 421.949219 26.773438 411.226562 27.601562 C 402.824219 28.273438 397.726562 28.800781 388.949219 29.925781 C 376.050781 31.648438 354.449219 35.023438 341.398438 37.574219 C 332.25 39.449219 325.875 41.023438 318.148438 43.050781 C 310.425781 45.148438 302.550781 47.476562 295.199219 49.949219 C 288.226562 52.351562 281.476562 55.050781 275.023438 57.824219 C 269.023438 60.375 263.398438 62.925781 257.773438 65.925781 C 252.074219 68.925781 247.425781 71.773438 241.273438 75.976562 C 232.875 81.601562 220.273438 92.398438 212.25 97.5 C 207.074219 100.726562 201.226562 101.773438 198.75 104.625 C 197.175781 106.5 197.773438 108.976562 196.648438 110.773438 C 195.523438 112.5 193.425781 114.226562 191.925781 115.199219 C 190.875 115.875 190.199219 116.175781 188.925781 116.398438 C 187.199219 116.773438 184.199219 116.851562 182.476562 116.625 C 181.273438 116.398438 180.523438 116.175781 179.398438 115.574219 C 177.898438 114.675781 175.648438 113.101562 174.449219 111.375 C 173.175781 109.726562 172.351562 107.476562 171.976562 105.449219 C 171.601562 103.425781 171.675781 101.699219 172.199219 99.375 C 173.023438 95.925781 175.351562 90.898438 177.898438 87.148438 C 180.601562 83.25 184.351562 79.800781 188.023438 76.574219 C 191.773438 73.273438 195.976562 70.5 200.25 67.800781 C 204.601562 65.023438 208.949219 62.398438 213.75 60.148438 C 218.773438 57.75 224.398438 54.601562 229.648438 54 C 234.449219 53.398438 240.601562 52.800781 243.824219 55.726562 C 248.023438 59.625 250.273438 73.199219 248.773438 79.726562 C 247.5 85.125 241.875 93.074219 238.425781 92.925781 C 234.601562 92.773438 226.050781 81.074219 227.101562 74.925781 C 228.601562 66.074219 252.824219 53.25 262.050781 47.398438 C 267.449219 43.949219 270.226562 42.375 275.773438 40.5 C 283.199219 37.949219 293.101562 37.351562 303.375 35.023438 C 316.648438 32.101562 335.550781 26.699219 348.601562 23.773438 C 358.425781 21.601562 366 19.949219 374.550781 18.523438 C 382.726562 17.175781 391.351562 16.050781 398.925781 15.523438 C 405.523438 15.074219 412.949219 14.699219 417.449219 15.300781 C 420.074219 15.675781 421.800781 16.050781 423.675781 17.101562 C 425.476562 18.148438 427.199219 19.800781 428.324219 21.523438 C 429.449219 23.25 430.273438 25.574219 430.425781 27.601562 C 430.648438 29.699219 430.050781 32.324219 429.449219 34.050781 C 429 35.175781 428.625 35.925781 427.800781 36.824219 C 426.675781 38.175781 425.25 39.75 422.851562 40.949219 C 418.574219 43.125 409.351562 44.550781 402.976562 45.898438 C 397.125 47.101562 392.476562 48.148438 386.175781 48.75 C 378.148438 49.574219 364.351562 50.773438 358.726562 49.5 C 355.949219 48.824219 354.601562 47.851562 353.023438 46.425781 C 351.449219 45 350.101562 43.050781 349.351562 41.101562 C 348.675781 39.148438 348.375 36.75 348.675781 34.648438 C 348.898438 32.625 349.800781 30.375 351 28.648438 C 352.199219 26.925781 354 25.425781 355.875 24.375 C 357.75 23.324219 359.398438 23.175781 362.398438 22.425781 C 369 20.699219 383.398438 17.773438 394.351562 15.898438 C 405.824219 13.949219 424.273438 11.101562 429.75 11.023438 C 431.398438 11.023438 431.851562 11.023438 432.976562 11.398438 C 434.699219 11.925781 437.324219 13.351562 438.75 14.398438 C 439.726562 15.148438 440.25 15.75 440.851562 16.875 C 441.824219 18.375 442.949219 20.851562 443.175781 22.875 C 443.398438 24.976562 442.949219 27.601562 442.425781 29.324219 C 442.050781 30.523438 441.675781 31.199219 440.925781 32.175781 C 439.800781 33.601562 437.925781 35.476562 436.050781 36.449219 C 434.175781 37.425781 432.976562 37.648438 429.75 38.023438 C 420.074219 39.226562 377.550781 38.773438 370.125 37.949219 C 368.398438 37.800781 368.101562 37.726562 366.976562 37.273438 C 365.324219 36.601562 362.851562 34.949219 361.574219 33.75 C 360.675781 32.925781 360.148438 32.101562 359.625 31.125 C 359.101562 30.226562 358.648438 29.324219 358.351562 28.125 C 358.050781 26.398438 357.75 23.699219 358.199219 21.675781 C 358.648438 19.648438 359.699219 17.476562 361.050781 15.824219 C 362.398438 14.25 364.648438 12.824219 366.300781 12.074219 C 367.425781 11.476562 368.101562 11.324219 369.375 11.175781 C 371.476562 10.949219 374.398438 11.25 377.550781 11.625 C 382.125 12.300781 388.574219 13.875 394.050781 15.226562 C 399.601562 16.648438 405.074219 18.074219 410.699219 20.101562 C 416.699219 22.199219 424.273438 23.851562 429.074219 27.976562 C 433.726562 31.949219 435.601562 41.925781 439.199219 44.175781 C 441.226562 45.449219 443.625 44.175781 445.574219 44.925781 C 447.523438 45.675781 449.550781 47.023438 450.898438 48.601562 C 452.324219 50.101562 453.449219 52.273438 453.976562 54.300781 C 454.5 56.324219 454.5 58.726562 453.976562 60.75 C 453.449219 62.773438 452.398438 64.875 450.976562 66.449219 C 449.625 68.023438 447.824219 69.375 445.726562 70.125 C 443.25 71.101562 440.324219 71.023438 437.101562 71.175781 C 432.976562 71.324219 427.875 70.949219 422.699219 70.5 C 416.550781 69.976562 411.300781 69.375 402.675781 68.023438 C 386.398438 65.476562 353.324219 58.273438 332.773438 54.75 C 316.726562 51.976562 301.574219 49.273438 289.648438 48 C 281.25 47.101562 277.050781 46.949219 268.199219 46.726562 C 253.648438 46.273438 218.25 54.75 210.449219 46.949219 C 205.050781 41.625 210.449219 19.726562 210.449219 19.726562 " clip-rule="nonzero"/></clipPath><mask id="423cc078c4"><g filter="url(#f72239606c)"><rect x="-76.8" width="921.6" fill="#000000" y="-76.799999" height="921.599993" fill-opacity="0.5"/></g></mask><clipPath id="f793a28ad0"><path d="M 0.359375 0 L 420.835938 0 L 420.835938 117 L 0.359375 117 Z M 0.359375 0 " clip-rule="nonzero"/></clipPath><clipPath id="ca3aab3235"><path d="M 39.449219 19.726562 C 106.648438 19.949219 111.226562 20.101562 120.226562 21 C 132.976562 22.351562 149.398438 25.199219 166.273438 28.125 C 187.273438 31.726562 220.800781 39 236.476562 41.398438 C 244.351562 42.675781 248.398438 43.199219 254.324219 43.648438 C 260.101562 44.101562 267.226562 43.351562 271.425781 44.175781 C 274.050781 44.625 276 45.523438 277.5 46.425781 C 278.550781 47.023438 279.148438 47.550781 279.898438 48.601562 C 281.023438 49.949219 282.449219 52.273438 282.976562 54.300781 C 283.5 56.324219 283.5 58.726562 282.976562 60.75 C 282.449219 62.773438 281.398438 64.875 279.976562 66.449219 C 278.625 68.023438 276.300781 69.449219 274.726562 70.125 C 273.523438 70.648438 272.925781 70.949219 271.5 70.949219 C 268.5 70.949219 260.925781 69.898438 257.476562 67.199219 C 254.101562 64.5 254.101562 57.976562 250.949219 54.824219 C 247.648438 51.601562 242.476562 50.101562 237.898438 48.148438 C 233.101562 46.125 228.375 44.699219 222.523438 43.050781 C 214.875 41.023438 200.324219 38.773438 195.976562 37.273438 C 194.476562 36.75 194.023438 36.601562 193.050781 35.851562 C 191.625 34.800781 189.675781 32.925781 188.625 31.125 C 187.574219 29.324219 187.050781 26.625 186.898438 24.898438 C 186.824219 23.625 186.898438 22.875 187.199219 21.675781 C 187.648438 19.949219 189 17.25 190.050781 15.824219 C 190.800781 14.851562 191.398438 14.324219 192.449219 13.648438 C 193.875 12.675781 195.300781 11.773438 198.375 11.175781 C 207.976562 9.300781 249 9.824219 258.75 11.023438 C 261.976562 11.398438 263.175781 11.625 265.050781 12.601562 C 266.925781 13.574219 268.726562 15.148438 269.925781 16.875 C 271.050781 18.601562 271.949219 20.851562 272.175781 22.875 C 272.398438 24.976562 271.949219 27.601562 271.425781 29.324219 C 271.050781 30.523438 270.675781 31.199219 269.851562 32.175781 C 268.800781 33.601562 266.550781 35.550781 265.050781 36.449219 C 264 37.125 263.625 37.199219 261.976562 37.648438 C 256.050781 39.226562 231.601562 41.851562 219.300781 44.101562 C 209.773438 45.824219 199.800781 48.976562 194.175781 49.5 C 191.324219 49.800781 189.449219 49.800781 187.726562 49.5 C 186.449219 49.273438 185.773438 48.976562 184.648438 48.300781 C 183.148438 47.398438 181.050781 45.675781 179.851562 43.949219 C 178.726562 42.226562 177.898438 39.675781 177.601562 37.949219 C 177.375 36.675781 177.449219 35.925781 177.675781 34.648438 C 177.976562 32.925781 179.101562 30.148438 180 28.648438 C 180.675781 27.601562 181.199219 27 182.175781 26.25 C 183.523438 25.125 185.398438 23.925781 187.875 23.25 C 192 22.199219 199.648438 23.25 205.199219 22.800781 C 210.226562 22.351562 214.351562 21.675781 219.75 20.699219 C 226.648438 19.425781 237.75 16.125 243.148438 15.601562 C 246 15.375 247.949219 15.449219 249.675781 15.824219 C 250.875 16.125 251.625 16.425781 252.675781 17.101562 C 254.101562 18.074219 256.199219 19.800781 257.324219 21.523438 C 258.449219 23.25 259.199219 25.875 259.425781 27.601562 C 259.648438 28.875 259.574219 29.699219 259.351562 30.898438 C 258.976562 32.625 258.074219 35.175781 256.800781 36.824219 C 255.601562 38.550781 253.425781 40.125 251.851562 40.949219 C 250.800781 41.625 250.273438 41.773438 248.773438 42 C 245.101562 42.675781 235.726562 42 229.050781 42.523438 C 222 43.050781 217.199219 43.5 207.523438 45.226562 C 186.675781 48.898438 133.574219 56.023438 109.648438 67.351562 C 93.375 75.074219 83.625 90.375 72.976562 96.074219 C 66.074219 99.75 59.175781 103.726562 54.375 102.148438 C 49.875 100.648438 45.148438 93.300781 44.476562 88.5 C 43.875 83.851562 46.5 75.601562 49.949219 73.726562 C 53.25 71.925781 64.050781 74.625 64.5 77.023438 C 65.175781 80.773438 39.976562 92.324219 33.824219 97.726562 C 30.824219 100.425781 29.175781 102.300781 27.75 104.625 C 26.625 106.648438 26.550781 109.199219 25.648438 110.773438 C 25.050781 111.824219 24.523438 112.425781 23.550781 113.25 C 22.199219 114.375 19.949219 115.875 17.925781 116.398438 C 15.898438 117 13.5 117.074219 11.476562 116.625 C 9.449219 116.175781 7.125 114.824219 5.699219 113.773438 C 4.648438 113.023438 4.125 112.425781 3.449219 111.375 C 2.476562 109.949219 1.351562 107.175781 0.976562 105.449219 C 0.75 104.175781 0.523438 103.5 0.898438 102.148438 C 1.726562 99.148438 5.550781 93.601562 9.75 89.023438 C 16.050781 82.050781 29.023438 72.824219 37.199219 66.601562 C 43.5 61.648438 48.523438 57.976562 54.449219 54.074219 C 60.375 50.101562 66.375 46.273438 72.675781 42.898438 C 79.050781 39.375 85.648438 36.375 92.476562 33.375 C 99.601562 30.300781 106.800781 27.449219 114.449219 24.824219 C 122.398438 22.050781 130.949219 19.5 139.351562 17.25 C 147.601562 15 154.425781 13.273438 164.25 11.324219 C 177.976562 8.550781 200.625 5.023438 214.125 3.226562 C 223.351562 2.023438 228.675781 1.5 237.375 0.75 C 248.550781 -0.148438 260.851562 -0.976562 275.773438 -1.5 C 296.625 -2.25 330.898438 -2.550781 351 -2.398438 C 364.425781 -2.324219 375.675781 -3.449219 384.523438 -1.574219 C 390.75 -0.300781 396.226562 1.125 399.824219 4.574219 C 403.273438 7.875 404.550781 13.574219 406.199219 18.300781 C 407.851562 22.875 408.148438 26.925781 409.726562 32.476562 C 412.050781 40.648438 417.898438 56.023438 419.398438 62.398438 C 420.074219 65.324219 421.125 66.300781 420.449219 68.925781 C 419.023438 74.25 407.699219 90.300781 403.800781 90.226562 C 401.625 90.226562 400.273438 86.25 398.699219 83.476562 C 396.75 79.949219 395.550781 75.75 393.675781 70.5 C 390.824219 62.550781 386.023438 48.675781 383.925781 40.273438 C 382.425781 34.425781 385.050781 28.5 381.074219 25.199219 C 373.648438 18.976562 344.699219 24.601562 327 24.675781 C 309.976562 24.675781 292.351562 24.898438 276.976562 25.5 C 263.773438 25.949219 250.949219 26.773438 240.226562 27.601562 C 231.824219 28.273438 226.726562 28.800781 217.949219 29.925781 C 205.050781 31.648438 183.449219 35.023438 170.398438 37.574219 C 161.25 39.449219 154.875 41.023438 147.148438 43.050781 C 139.425781 45.148438 131.550781 47.476562 124.199219 49.949219 C 117.226562 52.351562 110.476562 55.050781 104.023438 57.824219 C 98.023438 60.375 92.398438 62.925781 86.773438 65.925781 C 81.074219 68.925781 76.425781 71.773438 70.273438 75.976562 C 61.875 81.601562 49.273438 92.398438 41.25 97.5 C 36.074219 100.726562 30.226562 101.773438 27.75 104.625 C 26.175781 106.5 26.773438 108.976562 25.648438 110.773438 C 24.523438 112.5 22.425781 114.226562 20.925781 115.199219 C 19.875 115.875 19.199219 116.175781 17.925781 116.398438 C 16.199219 116.773438 13.199219 116.851562 11.476562 116.625 C 10.273438 116.398438 9.523438 116.175781 8.398438 115.574219 C 6.898438 114.675781 4.648438 113.101562 3.449219 111.375 C 2.175781 109.726562 1.351562 107.476562 0.976562 105.449219 C 0.601562 103.425781 0.675781 101.699219 1.199219 99.375 C 2.023438 95.925781 4.351562 90.898438 6.898438 87.148438 C 9.601562 83.25 13.351562 79.800781 17.023438 76.574219 C 20.773438 73.273438 24.976562 70.5 29.25 67.800781 C 33.601562 65.023438 37.949219 62.398438 42.75 60.148438 C 47.773438 57.75 53.398438 54.601562 58.648438 54 C 63.449219 53.398438 69.601562 52.800781 72.824219 55.726562 C 77.023438 59.625 79.273438 73.199219 77.773438 79.726562 C 76.5 85.125 70.875 93.074219 67.425781 92.925781 C 63.601562 92.773438 55.050781 81.074219 56.101562 74.925781 C 57.601562 66.074219 81.824219 53.25 91.050781 47.398438 C 96.449219 43.949219 99.226562 42.375 104.773438 40.5 C 112.199219 37.949219 122.101562 37.351562 132.375 35.023438 C 145.648438 32.101562 164.550781 26.699219 177.601562 23.773438 C 187.425781 21.601562 195 19.949219 203.550781 18.523438 C 211.726562 17.175781 220.351562 16.050781 227.925781 15.523438 C 234.523438 15.074219 241.949219 14.699219 246.449219 15.300781 C 249.074219 15.675781 250.800781 16.050781 252.675781 17.101562 C 254.476562 18.148438 256.199219 19.800781 257.324219 21.523438 C 258.449219 23.25 259.273438 25.574219 259.425781 27.601562 C 259.648438 29.699219 259.050781 32.324219 258.449219 34.050781 C 258 35.175781 257.625 35.925781 256.800781 36.824219 C 255.675781 38.175781 254.25 39.75 251.851562 40.949219 C 247.574219 43.125 238.351562 44.550781 231.976562 45.898438 C 226.125 47.101562 221.476562 48.148438 215.175781 48.75 C 207.148438 49.574219 193.351562 50.773438 187.726562 49.5 C 184.949219 48.824219 183.601562 47.851562 182.023438 46.425781 C 180.449219 45 179.101562 43.050781 178.351562 41.101562 C 177.675781 39.148438 177.375 36.75 177.675781 34.648438 C 177.898438 32.625 178.800781 30.375 180 28.648438 C 181.199219 26.925781 183 25.425781 184.875 24.375 C 186.75 23.324219 188.398438 23.175781 191.398438 22.425781 C 198 20.699219 212.398438 17.773438 223.351562 15.898438 C 234.824219 13.949219 253.273438 11.101562 258.75 11.023438 C 260.398438 11.023438 260.851562 11.023438 261.976562 11.398438 C 263.699219 11.925781 266.324219 13.351562 267.75 14.398438 C 268.726562 15.148438 269.25 15.75 269.851562 16.875 C 270.824219 18.375 271.949219 20.851562 272.175781 22.875 C 272.398438 24.976562 271.949219 27.601562 271.425781 29.324219 C 271.050781 30.523438 270.675781 31.199219 269.925781 32.175781 C 268.800781 33.601562 266.925781 35.476562 265.050781 36.449219 C 263.175781 37.425781 261.976562 37.648438 258.75 38.023438 C 249.074219 39.226562 206.550781 38.773438 199.125 37.949219 C 197.398438 37.800781 197.101562 37.726562 195.976562 37.273438 C 194.324219 36.601562 191.851562 34.949219 190.574219 33.75 C 189.675781 32.925781 189.148438 32.101562 188.625 31.125 C 188.101562 30.226562 187.648438 29.324219 187.351562 28.125 C 187.050781 26.398438 186.75 23.699219 187.199219 21.675781 C 187.648438 19.648438 188.699219 17.476562 190.050781 15.824219 C 191.398438 14.25 193.648438 12.824219 195.300781 12.074219 C 196.425781 11.476562 197.101562 11.324219 198.375 11.175781 C 200.476562 10.949219 203.398438 11.25 206.550781 11.625 C 211.125 12.300781 217.574219 13.875 223.050781 15.226562 C 228.601562 16.648438 234.074219 18.074219 239.699219 20.101562 C 245.699219 22.199219 253.273438 23.851562 258.074219 27.976562 C 262.726562 31.949219 264.601562 41.925781 268.199219 44.175781 C 270.226562 45.449219 272.625 44.175781 274.574219 44.925781 C 276.523438 45.675781 278.550781 47.023438 279.898438 48.601562 C 281.324219 50.101562 282.449219 52.273438 282.976562 54.300781 C 283.5 56.324219 283.5 58.726562 282.976562 60.75 C 282.449219 62.773438 281.398438 64.875 279.976562 66.449219 C 278.625 68.023438 276.824219 69.375 274.726562 70.125 C 272.25 71.101562 269.324219 71.023438 266.101562 71.175781 C 261.976562 71.324219 256.875 70.949219 251.699219 70.5 C 245.550781 69.976562 240.300781 69.375 231.675781 68.023438 C 215.398438 65.476562 182.324219 58.273438 161.773438 54.75 C 145.726562 51.976562 130.574219 49.273438 118.648438 48 C 110.25 47.101562 106.050781 46.949219 97.199219 46.726562 C 82.648438 46.273438 47.25 54.75 39.449219 46.949219 C 34.050781 41.625 39.449219 19.726562 39.449219 19.726562 " clip-rule="nonzero"/></clipPath><clipPath id="bb427206cf"><rect x="0" width="421" y="0" height="117"/></clipPath></defs><rect x="-76.8" width="921.6" fill="#ffffff" y="-76.799999" height="921.599993" fill-opacity="1"/><rect x="-76.8" width="921.6" fill="#ffffff" y="-76.799999" height="921.599993" fill-opacity="1"/><g clip-path="url(#80d438ffb1)"><path fill="#000000" d="M 704 115.199219 C 668.109375 115.199219 640 154.566406 640 204.824219 C 640 248.925781 661.648438 284.632812 691.199219 292.722656 L 691.199219 640.144531 C 691.199219 647.21875 696.929688 652.949219 704 652.949219 C 711.066406 652.949219 716.796875 647.21875 716.796875 640.144531 L 716.796875 292.722656 C 746.351562 284.632812 768 248.925781 768 204.824219 C 768 154.566406 739.886719 115.199219 704 115.199219 Z M 704 268.84375 C 683.183594 268.84375 665.597656 239.527344 665.597656 204.824219 C 665.597656 170.121094 683.183594 140.808594 704 140.808594 C 724.8125 140.808594 742.398438 170.121094 742.398438 204.824219 C 742.398438 239.527344 724.8125 268.84375 704 268.84375 Z M 384 115.199219 C 235.78125 115.199219 115.203125 235.816406 115.203125 384.074219 C 115.203125 532.332031 235.78125 652.949219 384 652.949219 C 532.21875 652.949219 652.800781 532.332031 652.800781 384.074219 C 652.800781 235.816406 532.21875 115.199219 384 115.199219 Z M 384 627.34375 C 249.898438 627.34375 140.800781 518.214844 140.800781 384.074219 C 140.800781 249.9375 249.898438 140.808594 384 140.808594 C 518.101562 140.808594 627.199219 249.9375 627.199219 384.074219 C 627.199219 518.214844 518.101562 627.34375 384 627.34375 Z M 384 217.628906 C 292.246094 217.628906 217.601562 292.296875 217.601562 384.074219 C 217.601562 391.144531 211.871094 396.878906 204.800781 396.878906 C 197.730469 396.878906 192 391.144531 192 384.074219 C 192 278.175781 278.132812 192.019531 384 192.019531 C 391.070312 192.019531 396.800781 197.753906 396.800781 204.824219 C 396.800781 211.894531 391.070312 217.628906 384 217.628906 Z M 563.199219 371.269531 C 570.269531 371.269531 576 377.003906 576 384.074219 C 576 489.972656 489.867188 576.128906 384 576.128906 C 376.929688 576.128906 371.199219 570.394531 371.199219 563.324219 C 371.199219 556.253906 376.929688 550.519531 384 550.519531 C 475.753906 550.519531 550.398438 475.855469 550.398438 384.074219 C 550.398438 377.003906 556.128906 371.269531 563.199219 371.269531 Z M 371.199219 473.699219 C 371.199219 480.769531 376.929688 486.503906 384 486.503906 C 391.070312 486.503906 396.800781 480.769531 396.800781 473.699219 L 396.800781 434.023438 C 445.398438 427.972656 478.539062 410.539062 495.378906 382.09375 C 520.214844 340.152344 499.011719 291.308594 498.09375 289.25 C 495.621094 283.683594 489.570312 280.628906 483.621094 281.949219 C 418.597656 296.402344 391.417969 334.238281 380.070312 363.429688 C 379.558594 364.746094 379.082031 366.050781 378.625 367.355469 C 375.199219 362.585938 371.140625 357.960938 366.304688 353.691406 C 345.554688 335.367188 316.519531 328.398438 280.011719 332.957031 C 274.285156 333.671875 269.746094 338.136719 268.929688 343.851562 C 268.699219 345.46875 263.585938 383.691406 290.039062 410.988281 C 306.507812 427.984375 330.851562 436.539062 362.601562 436.539062 C 365.402344 436.539062 368.28125 436.453125 371.199219 436.320312 Z M 478.089844 309.785156 C 481.820312 323.398438 485.753906 348.246094 473.269531 369.1875 C 460.914062 389.914062 435.09375 403.03125 396.417969 408.265625 C 397.46875 383.621094 408.117188 330.207031 478.089844 309.785156 Z M 308.578125 393.328125 C 297.515625 382.023438 294.675781 367.09375 294.109375 357.390625 C 317.65625 356.167969 336.148438 361.316406 349.191406 372.738281 C 362.289062 384.210938 367.59375 400.066406 369.742188 410.78125 C 341.703125 412.050781 321.167969 406.191406 308.578125 393.328125 Z M 128 230.433594 L 128 128.003906 C 128 120.933594 122.269531 115.199219 115.203125 115.199219 C 108.132812 115.199219 102.402344 120.933594 102.402344 128.003906 L 102.402344 192.019531 L 76.800781 192.019531 L 76.800781 128.003906 C 76.800781 120.933594 71.070312 115.199219 64 115.199219 C 56.933594 115.199219 51.203125 120.933594 51.203125 128.003906 L 51.203125 192.019531 L 25.601562 192.019531 L 25.601562 128.003906 C 25.601562 120.933594 19.871094 115.199219 12.800781 115.199219 C 5.734375 115.199219 0 120.933594 0 128.003906 L 0 230.433594 C 0 261.347656 22.023438 287.214844 51.203125 293.160156 L 51.203125 640.144531 C 51.203125 647.21875 56.933594 652.949219 64 652.949219 C 71.070312 652.949219 76.800781 647.21875 76.800781 640.144531 L 76.800781 293.160156 C 105.980469 287.214844 128 261.347656 128 230.433594 Z M 102.402344 230.433594 C 102.402344 251.609375 85.175781 268.84375 64 268.84375 C 42.828125 268.84375 25.601562 251.609375 25.601562 230.433594 L 25.601562 217.628906 L 102.402344 217.628906 Z M 102.402344 230.433594 " fill-opacity="1" fill-rule="nonzero"/></g><g clip-path="url(#2e02219b12)"><g clip-path="url(#beb0d36b1b)"><g mask="url(#423cc078c4)"><g transform="matrix(1, 0, 0, 1, 171, -0.000000000000057351)"><g clip-path="url(#bb427206cf)"><g clip-path="url(#f793a28ad0)"><g clip-path="url(#ca3aab3235)"><rect x="-339.96" width="1105.92" fill="#ffffff" height="1105.919991" y="-168.959999" fill-opacity="1"/></g></g></g></g></g></g></g></svg>